<svg xmlns="http://www.w3.org/2000/svg" xmlns:xlink="http://www.w3.org/1999/xlink" width="500" zoomAndPan="magnify" viewBox="0 0 375 374.999991" height="500" preserveAspectRatio="xMidYMid meet" version="1.0"><defs><g/><clipPath id="40b1905fcb"><path d="M 229 57.355469 L 234 57.355469 L 234 64 L 229 64 Z M 229 57.355469 " clip-rule="nonzero"/></clipPath><clipPath id="82db24c499"><path d="M 239 63 L 247.460938 63 L 247.460938 72 L 239 72 Z M 239 63 " clip-rule="nonzero"/></clipPath><clipPath id="6ddc9b0e83"><path d="M 154 175 L 166 175 L 166 184.855469 L 154 184.855469 Z M 154 175 " clip-rule="nonzero"/></clipPath><clipPath id="38845a3a2d"><path d="M 130.460938 175 L 138 175 L 138 183 L 130.460938 183 Z M 130.460938 175 " clip-rule="nonzero"/></clipPath></defs><g fill="#ffffff" fill-opacity="1"><g transform="translate(96.373212, 246.685868)"><g><path d="M 32.117188 0 L 37.34375 0 L 21.175781 -38.5 L 16.664062 -38.5 L 0.933594 0 L 6.050781 0 L 9.789062 -9.183594 L 28.324219 -9.183594 Z M 18.972656 -31.84375 L 26.507812 -13.640625 L 11.605469 -13.640625 Z M 18.972656 -31.84375 "/></g></g></g><g fill="#ffffff" fill-opacity="1"><g transform="translate(132.780436, 246.685868)"><g><path d="M 22.328125 0.605469 C 31.402344 0.605469 38.554688 -4.839844 40.753906 -13.53125 L 35.859375 -13.53125 C 33.824219 -7.644531 28.820312 -4.125 22.328125 -4.125 C 13.75 -4.125 7.535156 -10.339844 7.535156 -19.195312 C 7.535156 -28.046875 13.75 -34.375 22.328125 -34.375 C 28.652344 -34.375 33.601562 -31.019531 35.636719 -25.464844 L 40.589844 -25.464844 C 38.386719 -33.769531 31.238281 -39.046875 22.328125 -39.046875 C 10.890625 -39.046875 2.585938 -30.742188 2.585938 -19.195312 C 2.585938 -7.699219 10.890625 0.605469 22.328125 0.605469 Z M 22.328125 0.605469 "/></g></g></g><g fill="#ffffff" fill-opacity="1"><g transform="translate(173.532341, 246.685868)"><g><path d="M 29.367188 -38.5 L 1.15625 -38.5 L 1.15625 -33.933594 L 12.871094 -33.933594 L 12.871094 0 L 17.652344 0 L 17.652344 -33.933594 L 29.367188 -33.933594 Z M 29.367188 -38.5 "/></g></g></g><g fill="#ffffff" fill-opacity="1"><g transform="translate(202.185129, 246.685868)"><g><path d="M 5.226562 0 L 10.066406 0 L 10.066406 -38.5 L 5.226562 -38.5 Z M 5.226562 0 "/></g></g></g><g fill="#ffffff" fill-opacity="1"><g transform="translate(215.604013, 246.685868)"><g><path d="M 26.839844 -33.878906 L 26.839844 -38.5 L 5.226562 -38.5 L 5.226562 0 L 10.066406 0 L 10.066406 -16.71875 L 25.410156 -16.71875 L 25.410156 -21.175781 L 10.066406 -21.175781 L 10.066406 -33.878906 Z M 26.839844 -33.878906 "/></g></g></g><g fill="#ffffff" fill-opacity="1"><g transform="translate(242.441928, 246.685868)"><g><path d="M 34.757812 -38.5 L 29.480469 -38.5 L 18.09375 -19.855469 L 6.765625 -38.5 L 1.484375 -38.5 L 15.5625 -15.34375 L 15.5625 0 L 20.570312 0 L 20.570312 -15.34375 Z M 34.757812 -38.5 "/></g></g></g><g fill="#ad864a" fill-opacity="1"><g transform="translate(97.32126, 293.549933)"><g><path d="M 2.957031 0.140625 C 4.578125 0.140625 5.570312 -0.585938 5.570312 -1.824219 C 5.570312 -3.179688 4.339844 -3.582031 3.242188 -3.757812 C 2.058594 -3.917969 1.394531 -4.214844 1.394531 -4.910156 C 1.394531 -5.453125 1.722656 -5.992188 2.917969 -5.992188 C 3.910156 -5.992188 4.441406 -5.527344 4.441406 -4.871094 L 5.308594 -4.871094 C 5.308594 -5.972656 4.480469 -6.75 2.929688 -6.75 C 1.210938 -6.75 0.535156 -5.898438 0.535156 -4.914062 C 0.535156 -3.578125 1.875 -3.214844 2.976562 -3.03125 C 3.960938 -2.878906 4.699219 -2.601562 4.699219 -1.824219 C 4.699219 -1.011719 4.078125 -0.597656 2.953125 -0.597656 C 1.863281 -0.597656 1.222656 -1.21875 1.222656 -1.914062 L 0.363281 -1.914062 C 0.363281 -0.914062 1.164062 0.140625 2.957031 0.140625 Z M 2.957031 0.140625 "/></g></g></g><g fill="#ad864a" fill-opacity="1"><g transform="translate(105.945649, 293.549933)"><g><path d="M 3.917969 0.132812 C 5.871094 0.132812 7.453125 -1.398438 7.453125 -3.308594 C 7.453125 -5.230469 5.871094 -6.75 3.917969 -6.75 C 1.972656 -6.75 0.394531 -5.230469 0.394531 -3.308594 C 0.394531 -1.398438 1.972656 0.132812 3.917969 0.132812 Z M 3.917969 -0.664062 C 2.449219 -0.664062 1.253906 -1.804688 1.253906 -3.308594 C 1.253906 -4.8125 2.441406 -5.957031 3.917969 -5.957031 C 5.398438 -5.957031 6.59375 -4.8125 6.59375 -3.308594 C 6.59375 -1.804688 5.398438 -0.664062 3.917969 -0.664062 Z M 3.917969 -0.664062 "/></g></g></g><g fill="#ad864a" fill-opacity="1"><g transform="translate(116.507499, 293.549933)"><g><path d="M 3.835938 0.132812 C 5.246094 0.132812 6.597656 -0.660156 6.929688 -2.257812 L 6.050781 -2.257812 C 5.753906 -1.195312 4.875 -0.664062 3.8125 -0.664062 C 2.375 -0.664062 1.253906 -1.75 1.253906 -3.308594 C 1.253906 -4.855469 2.375 -5.957031 3.8125 -5.957031 C 4.878906 -5.957031 5.753906 -5.429688 6.054688 -4.359375 L 6.929688 -4.359375 C 6.597656 -5.953125 5.234375 -6.75 3.835938 -6.75 C 1.898438 -6.75 0.394531 -5.230469 0.394531 -3.308594 C 0.394531 -1.398438 1.898438 0.132812 3.835938 0.132812 Z M 3.835938 0.132812 "/></g></g></g><g fill="#ad864a" fill-opacity="1"><g transform="translate(126.549779, 293.549933)"><g><path d="M 1.757812 0 L 1.757812 -6.605469 L 0.898438 -6.605469 L 0.898438 0 Z M 1.757812 0 "/></g></g></g><g fill="#ad864a" fill-opacity="1"><g transform="translate(131.920789, 293.549933)"><g><path d="M 6.476562 0 L 3.683594 -6.605469 L 2.859375 -6.605469 L 0.0625 0 L 0.976562 0 L 1.601562 -1.496094 L 4.9375 -1.496094 L 5.566406 0 Z M 3.238281 -5.394531 L 3.269531 -5.507812 L 3.277344 -5.507812 L 3.300781 -5.394531 L 4.632812 -2.222656 L 1.910156 -2.222656 Z M 3.238281 -5.394531 "/></g></g></g><g fill="#ad864a" fill-opacity="1"><g transform="translate(141.176432, 293.549933)"><g><path d="M 4.96875 0 L 4.96875 -0.777344 L 1.757812 -0.777344 L 1.757812 -6.605469 L 0.898438 -6.605469 L 0.898438 0 Z M 4.96875 0 "/></g></g></g><g fill="#ad864a" fill-opacity="1"><g transform="translate(149.053031, 293.549933)"><g/></g></g><g fill="#ad864a" fill-opacity="1"><g transform="translate(154.22495, 293.549933)"><g><path d="M 3.996094 0 C 5.027344 0 5.988281 -0.671875 5.988281 -1.863281 C 5.988281 -2.636719 5.429688 -3.289062 4.730469 -3.492188 C 5.21875 -3.703125 5.605469 -4.257812 5.605469 -4.867188 C 5.605469 -5.898438 4.816406 -6.605469 3.71875 -6.605469 L 0.898438 -6.605469 L 0.898438 0 Z M 1.765625 -5.855469 L 3.683594 -5.855469 C 4.269531 -5.855469 4.734375 -5.390625 4.734375 -4.800781 C 4.734375 -4.207031 4.269531 -3.738281 3.679688 -3.738281 L 1.765625 -3.738281 Z M 1.765625 -3.074219 L 3.9375 -3.074219 C 4.59375 -3.074219 5.101562 -2.558594 5.101562 -1.929688 C 5.101562 -1.257812 4.589844 -0.757812 3.929688 -0.757812 L 1.765625 -0.757812 Z M 1.765625 -3.074219 "/></g></g></g><g fill="#ad864a" fill-opacity="1"><g transform="translate(163.315497, 293.549933)"><g><path d="M 3.507812 0.136719 C 5.101562 0.136719 6.238281 -0.964844 6.238281 -2.558594 L 6.238281 -6.609375 L 5.378906 -6.609375 L 5.378906 -2.613281 C 5.378906 -1.535156 4.679688 -0.660156 3.507812 -0.660156 C 2.300781 -0.660156 1.625 -1.550781 1.625 -2.621094 L 1.625 -6.609375 L 0.773438 -6.609375 L 0.773438 -2.558594 C 0.773438 -0.921875 1.964844 0.136719 3.507812 0.136719 Z M 3.507812 0.136719 "/></g></g></g><g fill="#ad864a" fill-opacity="1"><g transform="translate(173.042151, 293.549933)"><g><path d="M 2.957031 0.140625 C 4.578125 0.140625 5.570312 -0.585938 5.570312 -1.824219 C 5.570312 -3.179688 4.339844 -3.582031 3.242188 -3.757812 C 2.058594 -3.917969 1.394531 -4.214844 1.394531 -4.910156 C 1.394531 -5.453125 1.722656 -5.992188 2.917969 -5.992188 C 3.910156 -5.992188 4.441406 -5.527344 4.441406 -4.871094 L 5.308594 -4.871094 C 5.308594 -5.972656 4.480469 -6.75 2.929688 -6.75 C 1.210938 -6.75 0.535156 -5.898438 0.535156 -4.914062 C 0.535156 -3.578125 1.875 -3.214844 2.976562 -3.03125 C 3.960938 -2.878906 4.699219 -2.601562 4.699219 -1.824219 C 4.699219 -1.011719 4.078125 -0.597656 2.953125 -0.597656 C 1.863281 -0.597656 1.222656 -1.21875 1.222656 -1.914062 L 0.363281 -1.914062 C 0.363281 -0.914062 1.164062 0.140625 2.957031 0.140625 Z M 2.957031 0.140625 "/></g></g></g><g fill="#ad864a" fill-opacity="1"><g transform="translate(181.666542, 293.549933)"><g><path d="M 2.957031 0.140625 C 4.578125 0.140625 5.570312 -0.585938 5.570312 -1.824219 C 5.570312 -3.179688 4.339844 -3.582031 3.242188 -3.757812 C 2.058594 -3.917969 1.394531 -4.214844 1.394531 -4.910156 C 1.394531 -5.453125 1.722656 -5.992188 2.917969 -5.992188 C 3.910156 -5.992188 4.441406 -5.527344 4.441406 -4.871094 L 5.308594 -4.871094 C 5.308594 -5.972656 4.480469 -6.75 2.929688 -6.75 C 1.210938 -6.75 0.535156 -5.898438 0.535156 -4.914062 C 0.535156 -3.578125 1.875 -3.214844 2.976562 -3.03125 C 3.960938 -2.878906 4.699219 -2.601562 4.699219 -1.824219 C 4.699219 -1.011719 4.078125 -0.597656 2.953125 -0.597656 C 1.863281 -0.597656 1.222656 -1.21875 1.222656 -1.914062 L 0.363281 -1.914062 C 0.363281 -0.914062 1.164062 0.140625 2.957031 0.140625 Z M 2.957031 0.140625 "/></g></g></g><g fill="#ad864a" fill-opacity="1"><g transform="translate(190.290932, 293.549933)"><g><path d="M 1.757812 0 L 1.757812 -6.605469 L 0.898438 -6.605469 L 0.898438 0 Z M 1.757812 0 "/></g></g></g><g fill="#ad864a" fill-opacity="1"><g transform="translate(195.661942, 293.549933)"><g><path d="M 5.695312 -1.425781 L 5.691406 -1.425781 L 1.621094 -6.605469 L 0.898438 -6.605469 L 0.898438 0 L 1.757812 0 L 1.757812 -5.160156 L 5.820312 0 L 6.550781 0 L 6.550781 -6.605469 L 5.695312 -6.605469 Z M 5.695312 -1.425781 "/></g></g></g><g fill="#ad864a" fill-opacity="1"><g transform="translate(205.825612, 293.549933)"><g><path d="M 5.332031 0 L 5.332031 -0.777344 L 1.757812 -0.777344 L 1.757812 -2.992188 L 4.828125 -2.992188 L 4.828125 -3.730469 L 1.757812 -3.730469 L 1.757812 -5.820312 L 5.289062 -5.820312 L 5.289062 -6.605469 L 0.898438 -6.605469 L 0.898438 0 Z M 5.332031 0 "/></g></g></g><g fill="#ad864a" fill-opacity="1"><g transform="translate(214.22178, 293.549933)"><g><path d="M 2.957031 0.140625 C 4.578125 0.140625 5.570312 -0.585938 5.570312 -1.824219 C 5.570312 -3.179688 4.339844 -3.582031 3.242188 -3.757812 C 2.058594 -3.917969 1.394531 -4.214844 1.394531 -4.910156 C 1.394531 -5.453125 1.722656 -5.992188 2.917969 -5.992188 C 3.910156 -5.992188 4.441406 -5.527344 4.441406 -4.871094 L 5.308594 -4.871094 C 5.308594 -5.972656 4.480469 -6.75 2.929688 -6.75 C 1.210938 -6.75 0.535156 -5.898438 0.535156 -4.914062 C 0.535156 -3.578125 1.875 -3.214844 2.976562 -3.03125 C 3.960938 -2.878906 4.699219 -2.601562 4.699219 -1.824219 C 4.699219 -1.011719 4.078125 -0.597656 2.953125 -0.597656 C 1.863281 -0.597656 1.222656 -1.21875 1.222656 -1.914062 L 0.363281 -1.914062 C 0.363281 -0.914062 1.164062 0.140625 2.957031 0.140625 Z M 2.957031 0.140625 "/></g></g></g><g fill="#ad864a" fill-opacity="1"><g transform="translate(222.84617, 293.549933)"><g/></g></g><g fill="#ad864a" fill-opacity="1"><g transform="translate(228.018093, 293.549933)"><g><path d="M 5.695312 -1.425781 L 5.691406 -1.425781 L 1.621094 -6.605469 L 0.898438 -6.605469 L 0.898438 0 L 1.757812 0 L 1.757812 -5.160156 L 5.820312 0 L 6.550781 0 L 6.550781 -6.605469 L 5.695312 -6.605469 Z M 5.695312 -1.425781 "/></g></g></g><g fill="#ad864a" fill-opacity="1"><g transform="translate(238.181769, 293.549933)"><g><path d="M 5.332031 0 L 5.332031 -0.777344 L 1.757812 -0.777344 L 1.757812 -2.992188 L 4.828125 -2.992188 L 4.828125 -3.730469 L 1.757812 -3.730469 L 1.757812 -5.820312 L 5.289062 -5.820312 L 5.289062 -6.605469 L 0.898438 -6.605469 L 0.898438 0 Z M 5.332031 0 "/></g></g></g><g fill="#ad864a" fill-opacity="1"><g transform="translate(246.577937, 293.549933)"><g><path d="M 3.183594 0 L 3.183594 -5.832031 L 5.277344 -5.832031 L 5.277344 -6.605469 L 0.238281 -6.605469 L 0.238281 -5.832031 L 2.324219 -5.832031 L 2.324219 0 Z M 3.183594 0 "/></g></g></g><g fill="#ad864a" fill-opacity="1"><g transform="translate(254.813864, 293.549933)"><g><path d="M 3.183594 0 L 4.929688 -5.414062 L 6.667969 0 L 7.511719 0 L 9.753906 -6.605469 L 8.847656 -6.605469 L 7.171875 -1.574219 L 7.070312 -1.144531 L 7.054688 -1.144531 L 6.96875 -1.550781 L 5.378906 -6.605469 L 4.472656 -6.605469 L 2.882812 -1.542969 L 2.808594 -1.144531 L 2.789062 -1.144531 L 2.691406 -1.535156 L 1.011719 -6.605469 L 0.0976562 -6.605469 L 2.34375 0 Z M 3.183594 0 "/></g></g></g><g fill="#ad864a" fill-opacity="1"><g transform="translate(267.386012, 293.549933)"><g><path d="M 3.917969 0.132812 C 5.871094 0.132812 7.453125 -1.398438 7.453125 -3.308594 C 7.453125 -5.230469 5.871094 -6.75 3.917969 -6.75 C 1.972656 -6.75 0.394531 -5.230469 0.394531 -3.308594 C 0.394531 -1.398438 1.972656 0.132812 3.917969 0.132812 Z M 3.917969 -0.664062 C 2.449219 -0.664062 1.253906 -1.804688 1.253906 -3.308594 C 1.253906 -4.8125 2.441406 -5.957031 3.917969 -5.957031 C 5.398438 -5.957031 6.59375 -4.8125 6.59375 -3.308594 C 6.59375 -1.804688 5.398438 -0.664062 3.917969 -0.664062 Z M 3.917969 -0.664062 "/></g></g></g><g fill="#ad864a" fill-opacity="1"><g transform="translate(277.947863, 293.549933)"><g><path d="M 1.757812 0 L 1.757812 -2.480469 L 3.371094 -2.480469 C 3.441406 -2.480469 3.511719 -2.480469 3.582031 -2.484375 L 5.050781 0 L 6.039062 0 L 4.449219 -2.613281 C 5.316406 -2.84375 5.894531 -3.558594 5.894531 -4.53125 C 5.894531 -5.773438 4.980469 -6.605469 3.703125 -6.605469 L 0.898438 -6.605469 L 0.898438 0 Z M 1.757812 -5.832031 L 3.671875 -5.832031 C 4.449219 -5.832031 5.035156 -5.277344 5.035156 -4.527344 C 5.035156 -3.742188 4.457031 -3.21875 3.683594 -3.214844 L 1.757812 -3.214844 Z M 1.757812 -5.832031 "/></g></g></g><g fill="#ad864a" fill-opacity="1"><g transform="translate(287.004419, 293.549933)"><g><path d="M 5.953125 -6.605469 L 4.9375 -6.605469 L 1.757812 -2.691406 L 1.757812 -6.605469 L 0.898438 -6.605469 L 0.898438 0 L 1.757812 0 L 1.757812 -1.542969 L 2.992188 -3.058594 L 5.292969 0 L 6.320312 0 L 3.554688 -3.691406 Z M 5.953125 -6.605469 "/></g></g></g><g fill="#ad864a" fill-opacity="1"><g transform="translate(107.106269, 313.66575)"><g><path d="M 3.183594 0 L 3.183594 -5.832031 L 5.277344 -5.832031 L 5.277344 -6.605469 L 0.238281 -6.605469 L 0.238281 -5.832031 L 2.324219 -5.832031 L 2.324219 0 Z M 3.183594 0 "/></g></g></g><g fill="#ad864a" fill-opacity="1"><g transform="translate(115.342195, 313.66575)"><g><path d="M 3.917969 0.132812 C 5.871094 0.132812 7.453125 -1.398438 7.453125 -3.308594 C 7.453125 -5.230469 5.871094 -6.75 3.917969 -6.75 C 1.972656 -6.75 0.394531 -5.230469 0.394531 -3.308594 C 0.394531 -1.398438 1.972656 0.132812 3.917969 0.132812 Z M 3.917969 -0.664062 C 2.449219 -0.664062 1.253906 -1.804688 1.253906 -3.308594 C 1.253906 -4.8125 2.441406 -5.957031 3.917969 -5.957031 C 5.398438 -5.957031 6.59375 -4.8125 6.59375 -3.308594 C 6.59375 -1.804688 5.398438 -0.664062 3.917969 -0.664062 Z M 3.917969 -0.664062 "/></g></g></g><g fill="#ad864a" fill-opacity="1"><g transform="translate(125.904045, 313.66575)"><g><path d="M 3.863281 0.125 C 6.011719 0.125 7.234375 -1.476562 7.230469 -3.476562 L 3.816406 -3.476562 L 3.816406 -2.699219 L 6.335938 -2.699219 C 6.15625 -1.570312 5.339844 -0.664062 3.847656 -0.664062 C 2.410156 -0.664062 1.257812 -1.75 1.257812 -3.308594 C 1.257812 -4.851562 2.410156 -5.957031 3.847656 -5.957031 C 4.910156 -5.957031 5.773438 -5.425781 6.140625 -4.519531 L 7.015625 -4.519531 C 6.664062 -5.933594 5.269531 -6.75 3.863281 -6.75 C 1.933594 -6.75 0.398438 -5.230469 0.398438 -3.308594 C 0.398438 -1.398438 1.933594 0.125 3.863281 0.125 Z M 3.863281 0.125 "/></g></g></g><g fill="#ad864a" fill-opacity="1"><g transform="translate(136.247384, 313.66575)"><g><path d="M 5.332031 0 L 5.332031 -0.777344 L 1.757812 -0.777344 L 1.757812 -2.992188 L 4.828125 -2.992188 L 4.828125 -3.730469 L 1.757812 -3.730469 L 1.757812 -5.820312 L 5.289062 -5.820312 L 5.289062 -6.605469 L 0.898438 -6.605469 L 0.898438 0 Z M 5.332031 0 "/></g></g></g><g fill="#ad864a" fill-opacity="1"><g transform="translate(144.643552, 313.66575)"><g><path d="M 3.183594 0 L 3.183594 -5.832031 L 5.277344 -5.832031 L 5.277344 -6.605469 L 0.238281 -6.605469 L 0.238281 -5.832031 L 2.324219 -5.832031 L 2.324219 0 Z M 3.183594 0 "/></g></g></g><g fill="#ad864a" fill-opacity="1"><g transform="translate(152.879479, 313.66575)"><g><path d="M 1.757812 0 L 1.757812 -2.921875 L 5.574219 -2.921875 L 5.574219 0 L 6.4375 0 L 6.4375 -6.605469 L 5.574219 -6.605469 L 5.574219 -3.695312 L 1.757812 -3.695312 L 1.757812 -6.605469 L 0.898438 -6.605469 L 0.898438 0 Z M 1.757812 0 "/></g></g></g><g fill="#ad864a" fill-opacity="1"><g transform="translate(162.931469, 313.66575)"><g><path d="M 5.332031 0 L 5.332031 -0.777344 L 1.757812 -0.777344 L 1.757812 -2.992188 L 4.828125 -2.992188 L 4.828125 -3.730469 L 1.757812 -3.730469 L 1.757812 -5.820312 L 5.289062 -5.820312 L 5.289062 -6.605469 L 0.898438 -6.605469 L 0.898438 0 Z M 5.332031 0 "/></g></g></g><g fill="#ad864a" fill-opacity="1"><g transform="translate(171.327637, 313.66575)"><g><path d="M 1.757812 0 L 1.757812 -2.480469 L 3.371094 -2.480469 C 3.441406 -2.480469 3.511719 -2.480469 3.582031 -2.484375 L 5.050781 0 L 6.039062 0 L 4.449219 -2.613281 C 5.316406 -2.84375 5.894531 -3.558594 5.894531 -4.53125 C 5.894531 -5.773438 4.980469 -6.605469 3.703125 -6.605469 L 0.898438 -6.605469 L 0.898438 0 Z M 1.757812 -5.832031 L 3.671875 -5.832031 C 4.449219 -5.832031 5.035156 -5.277344 5.035156 -4.527344 C 5.035156 -3.742188 4.457031 -3.21875 3.683594 -3.214844 L 1.757812 -3.214844 Z M 1.757812 -5.832031 "/></g></g></g><g fill="#ad864a" fill-opacity="1"><g transform="translate(180.384192, 313.66575)"><g/></g></g><g fill="#ad864a" fill-opacity="1"><g transform="translate(185.556115, 313.66575)"><g><path d="M 3.183594 0 L 3.183594 -5.832031 L 5.277344 -5.832031 L 5.277344 -6.605469 L 0.238281 -6.605469 L 0.238281 -5.832031 L 2.324219 -5.832031 L 2.324219 0 Z M 3.183594 0 "/></g></g></g><g fill="#ad864a" fill-opacity="1"><g transform="translate(193.792042, 313.66575)"><g><path d="M 3.917969 0.132812 C 5.871094 0.132812 7.453125 -1.398438 7.453125 -3.308594 C 7.453125 -5.230469 5.871094 -6.75 3.917969 -6.75 C 1.972656 -6.75 0.394531 -5.230469 0.394531 -3.308594 C 0.394531 -1.398438 1.972656 0.132812 3.917969 0.132812 Z M 3.917969 -0.664062 C 2.449219 -0.664062 1.253906 -1.804688 1.253906 -3.308594 C 1.253906 -4.8125 2.441406 -5.957031 3.917969 -5.957031 C 5.398438 -5.957031 6.59375 -4.8125 6.59375 -3.308594 C 6.59375 -1.804688 5.398438 -0.664062 3.917969 -0.664062 Z M 3.917969 -0.664062 "/></g></g></g><g fill="#ad864a" fill-opacity="1"><g transform="translate(204.353893, 313.66575)"><g/></g></g><g fill="#ad864a" fill-opacity="1"><g transform="translate(209.525816, 313.66575)"><g><path d="M 2.957031 0.140625 C 4.578125 0.140625 5.570312 -0.585938 5.570312 -1.824219 C 5.570312 -3.179688 4.339844 -3.582031 3.242188 -3.757812 C 2.058594 -3.917969 1.394531 -4.214844 1.394531 -4.910156 C 1.394531 -5.453125 1.722656 -5.992188 2.917969 -5.992188 C 3.910156 -5.992188 4.441406 -5.527344 4.441406 -4.871094 L 5.308594 -4.871094 C 5.308594 -5.972656 4.480469 -6.75 2.929688 -6.75 C 1.210938 -6.75 0.535156 -5.898438 0.535156 -4.914062 C 0.535156 -3.578125 1.875 -3.214844 2.976562 -3.03125 C 3.960938 -2.878906 4.699219 -2.601562 4.699219 -1.824219 C 4.699219 -1.011719 4.078125 -0.597656 2.953125 -0.597656 C 1.863281 -0.597656 1.222656 -1.21875 1.222656 -1.914062 L 0.363281 -1.914062 C 0.363281 -0.914062 1.164062 0.140625 2.957031 0.140625 Z M 2.957031 0.140625 "/></g></g></g><g fill="#ad864a" fill-opacity="1"><g transform="translate(218.1502, 313.66575)"><g><path d="M 3.507812 0.136719 C 5.101562 0.136719 6.238281 -0.964844 6.238281 -2.558594 L 6.238281 -6.609375 L 5.378906 -6.609375 L 5.378906 -2.613281 C 5.378906 -1.535156 4.679688 -0.660156 3.507812 -0.660156 C 2.300781 -0.660156 1.625 -1.550781 1.625 -2.621094 L 1.625 -6.609375 L 0.773438 -6.609375 L 0.773438 -2.558594 C 0.773438 -0.921875 1.964844 0.136719 3.507812 0.136719 Z M 3.507812 0.136719 "/></g></g></g><g fill="#ad864a" fill-opacity="1"><g transform="translate(227.876855, 313.66575)"><g><path d="M 3.835938 0.132812 C 5.246094 0.132812 6.597656 -0.660156 6.929688 -2.257812 L 6.050781 -2.257812 C 5.753906 -1.195312 4.875 -0.664062 3.8125 -0.664062 C 2.375 -0.664062 1.253906 -1.75 1.253906 -3.308594 C 1.253906 -4.855469 2.375 -5.957031 3.8125 -5.957031 C 4.878906 -5.957031 5.753906 -5.429688 6.054688 -4.359375 L 6.929688 -4.359375 C 6.597656 -5.953125 5.234375 -6.75 3.835938 -6.75 C 1.898438 -6.75 0.394531 -5.230469 0.394531 -3.308594 C 0.394531 -1.398438 1.898438 0.132812 3.835938 0.132812 Z M 3.835938 0.132812 "/></g></g></g><g fill="#ad864a" fill-opacity="1"><g transform="translate(237.919136, 313.66575)"><g><path d="M 3.835938 0.132812 C 5.246094 0.132812 6.597656 -0.660156 6.929688 -2.257812 L 6.050781 -2.257812 C 5.753906 -1.195312 4.875 -0.664062 3.8125 -0.664062 C 2.375 -0.664062 1.253906 -1.75 1.253906 -3.308594 C 1.253906 -4.855469 2.375 -5.957031 3.8125 -5.957031 C 4.878906 -5.957031 5.753906 -5.429688 6.054688 -4.359375 L 6.929688 -4.359375 C 6.597656 -5.953125 5.234375 -6.75 3.835938 -6.75 C 1.898438 -6.75 0.394531 -5.230469 0.394531 -3.308594 C 0.394531 -1.398438 1.898438 0.132812 3.835938 0.132812 Z M 3.835938 0.132812 "/></g></g></g><g fill="#ad864a" fill-opacity="1"><g transform="translate(247.961417, 313.66575)"><g><path d="M 5.332031 0 L 5.332031 -0.777344 L 1.757812 -0.777344 L 1.757812 -2.992188 L 4.828125 -2.992188 L 4.828125 -3.730469 L 1.757812 -3.730469 L 1.757812 -5.820312 L 5.289062 -5.820312 L 5.289062 -6.605469 L 0.898438 -6.605469 L 0.898438 0 Z M 5.332031 0 "/></g></g></g><g fill="#ad864a" fill-opacity="1"><g transform="translate(256.357585, 313.66575)"><g><path d="M 2.957031 0.140625 C 4.578125 0.140625 5.570312 -0.585938 5.570312 -1.824219 C 5.570312 -3.179688 4.339844 -3.582031 3.242188 -3.757812 C 2.058594 -3.917969 1.394531 -4.214844 1.394531 -4.910156 C 1.394531 -5.453125 1.722656 -5.992188 2.917969 -5.992188 C 3.910156 -5.992188 4.441406 -5.527344 4.441406 -4.871094 L 5.308594 -4.871094 C 5.308594 -5.972656 4.480469 -6.75 2.929688 -6.75 C 1.210938 -6.75 0.535156 -5.898438 0.535156 -4.914062 C 0.535156 -3.578125 1.875 -3.214844 2.976562 -3.03125 C 3.960938 -2.878906 4.699219 -2.601562 4.699219 -1.824219 C 4.699219 -1.011719 4.078125 -0.597656 2.953125 -0.597656 C 1.863281 -0.597656 1.222656 -1.21875 1.222656 -1.914062 L 0.363281 -1.914062 C 0.363281 -0.914062 1.164062 0.140625 2.957031 0.140625 Z M 2.957031 0.140625 "/></g></g></g><g fill="#ad864a" fill-opacity="1"><g transform="translate(264.981975, 313.66575)"><g><path d="M 2.957031 0.140625 C 4.578125 0.140625 5.570312 -0.585938 5.570312 -1.824219 C 5.570312 -3.179688 4.339844 -3.582031 3.242188 -3.757812 C 2.058594 -3.917969 1.394531 -4.214844 1.394531 -4.910156 C 1.394531 -5.453125 1.722656 -5.992188 2.917969 -5.992188 C 3.910156 -5.992188 4.441406 -5.527344 4.441406 -4.871094 L 5.308594 -4.871094 C 5.308594 -5.972656 4.480469 -6.75 2.929688 -6.75 C 1.210938 -6.75 0.535156 -5.898438 0.535156 -4.914062 C 0.535156 -3.578125 1.875 -3.214844 2.976562 -3.03125 C 3.960938 -2.878906 4.699219 -2.601562 4.699219 -1.824219 C 4.699219 -1.011719 4.078125 -0.597656 2.953125 -0.597656 C 1.863281 -0.597656 1.222656 -1.21875 1.222656 -1.914062 L 0.363281 -1.914062 C 0.363281 -0.914062 1.164062 0.140625 2.957031 0.140625 Z M 2.957031 0.140625 "/></g></g></g><path fill="#ff914d" d="M 201.796875 109.542969 C 201.796875 110.101562 201.742188 110.652344 201.636719 111.199219 C 201.527344 111.746094 201.367188 112.277344 201.152344 112.792969 C 200.9375 113.304688 200.675781 113.796875 200.367188 114.257812 C 200.058594 114.722656 199.707031 115.152344 199.3125 115.542969 C 198.917969 115.9375 198.488281 116.289062 198.027344 116.601562 C 197.5625 116.910156 197.074219 117.171875 196.558594 117.382812 C 196.042969 117.597656 195.511719 117.757812 194.96875 117.867188 C 194.421875 117.976562 193.867188 118.03125 193.3125 118.03125 C 192.753906 118.03125 192.203125 117.976562 191.65625 117.867188 C 191.109375 117.757812 190.578125 117.597656 190.0625 117.382812 C 189.546875 117.171875 189.058594 116.910156 188.597656 116.601562 C 188.132812 116.289062 187.703125 115.9375 187.308594 115.542969 C 186.917969 115.152344 186.5625 114.722656 186.253906 114.257812 C 185.945312 113.796875 185.683594 113.304688 185.46875 112.792969 C 185.257812 112.277344 185.097656 111.746094 184.988281 111.199219 C 184.878906 110.652344 184.824219 110.101562 184.824219 109.542969 C 184.824219 108.988281 184.878906 108.433594 184.988281 107.890625 C 185.097656 107.34375 185.257812 106.8125 185.46875 106.296875 C 185.683594 105.78125 185.945312 105.292969 186.253906 104.828125 C 186.5625 104.367188 186.917969 103.9375 187.308594 103.542969 C 187.703125 103.148438 188.132812 102.796875 188.597656 102.488281 C 189.058594 102.179688 189.546875 101.917969 190.0625 101.703125 C 190.578125 101.492188 191.109375 101.332031 191.65625 101.222656 C 192.203125 101.113281 192.753906 101.058594 193.3125 101.058594 C 193.867188 101.058594 194.421875 101.113281 194.96875 101.222656 C 195.511719 101.332031 196.042969 101.492188 196.558594 101.703125 C 197.074219 101.917969 197.5625 102.179688 198.027344 102.488281 C 198.488281 102.796875 198.917969 103.148438 199.3125 103.542969 C 199.707031 103.9375 200.058594 104.367188 200.367188 104.828125 C 200.675781 105.292969 200.9375 105.78125 201.152344 106.296875 C 201.367188 106.8125 201.527344 107.34375 201.636719 107.890625 C 201.742188 108.433594 201.796875 108.988281 201.796875 109.542969 Z M 201.796875 109.542969 " fill-opacity="1" fill-rule="nonzero"/><path fill="#ff914d" d="M 167.851562 142.214844 L 189.066406 129.484375 L 186.945312 152.820312 L 169.972656 165.550781 L 169.972656 174.035156 L 217.921875 138.59375 C 218.078125 138.484375 218.234375 138.476562 218.394531 138.574219 C 218.558594 138.675781 218.625 138.816406 218.59375 139.003906 L 216.652344 150.699219 L 223.015625 152.820312 L 225.136719 138.019531 C 225.226562 137.402344 225.222656 136.78125 225.128906 136.164062 C 225.035156 135.546875 224.855469 134.953125 224.585938 134.390625 C 224.316406 133.824219 223.972656 133.308594 223.554688 132.847656 C 223.132812 132.382812 222.65625 131.992188 222.117188 131.667969 C 221.582031 131.34375 221.011719 131.105469 220.40625 130.953125 C 219.800781 130.796875 219.183594 130.734375 218.558594 130.761719 C 217.933594 130.789062 217.324219 130.90625 216.734375 131.113281 C 216.144531 131.320312 215.597656 131.605469 215.089844 131.976562 L 203.921875 140.09375 L 206.042969 121 L 231.503906 106.148438 L 231.503906 97.664062 L 167.851562 133.730469 Z M 167.851562 142.214844 " fill-opacity="1" fill-rule="nonzero"/><path fill="#ff914d" d="M 235.339844 76.34375 L 231.40625 67.964844 L 227.472656 76.34375 L 218.675781 77.6875 L 225.039062 84.210938 L 223.539062 93.421875 L 231.40625 89.070312 L 239.273438 93.421875 L 237.769531 84.210938 L 244.136719 77.6875 Z M 235.339844 76.34375 " fill-opacity="1" fill-rule="nonzero"/><g clip-path="url(#40b1905fcb)"><path fill="#ff914d" d="M 229.382812 57.355469 L 233.625 57.355469 L 233.625 63.722656 L 229.382812 63.722656 Z M 229.382812 57.355469 " fill-opacity="1" fill-rule="nonzero"/></g><g clip-path="url(#82db24c499)"><path fill="#ff914d" d="M 239.992188 67.988281 L 244.589844 63.589844 L 247.523438 66.65625 L 242.925781 71.054688 Z M 239.992188 67.988281 " fill-opacity="1" fill-rule="nonzero"/></g><path fill="#ff914d" d="M 215.484375 66.621094 L 218.417969 63.554688 L 223.015625 67.953125 L 220.082031 71.019531 Z M 215.484375 66.621094 " fill-opacity="1" fill-rule="nonzero"/><path fill="#ff914d" d="M 189.679688 170.226562 L 208.996094 155.386719 L 211.582031 158.75 L 192.265625 173.59375 Z M 189.679688 170.226562 " fill-opacity="1" fill-rule="nonzero"/><path fill="#ff914d" d="M 181.410156 176.597656 L 185.652344 173.335938 L 188.238281 176.699219 L 183.996094 179.960938 Z M 181.410156 176.597656 " fill-opacity="1" fill-rule="nonzero"/><g clip-path="url(#6ddc9b0e83)"><path fill="#ff914d" d="M 154.1875 181.519531 L 162.675781 175.15625 L 165.21875 178.550781 L 156.730469 184.914062 Z M 154.1875 181.519531 " fill-opacity="1" fill-rule="nonzero"/></g><path fill="#ff914d" d="M 139.089844 172.980469 L 168.796875 153.179688 L 171.152344 156.710938 L 141.445312 176.507812 Z M 139.089844 172.980469 " fill-opacity="1" fill-rule="nonzero"/><g clip-path="url(#38845a3a2d)"><path fill="#ff914d" d="M 130.601562 178.636719 L 134.847656 175.808594 L 137.203125 179.339844 L 132.957031 182.167969 Z M 130.601562 178.636719 " fill-opacity="1" fill-rule="nonzero"/></g><path fill="#ff914d" d="M 135.003906 157.605469 L 153.925781 144.703125 L 156.316406 148.210938 L 137.394531 161.109375 Z M 135.003906 157.605469 " fill-opacity="1" fill-rule="nonzero"/></svg>